<svg xmlns="http://www.w3.org/2000/svg" width="33" height="32" viewBox="0 0 33 32" fill="none">
  <g clip-path="url(#clip0_39979_2072)">
    <path d="M32.5 16.2134C32.5 15.4311 32.2333 14.7734 31.7 14.24C31.1667 13.7067 30.5089 13.44 29.7267 13.44H5.51333V4.80002C5.51333 4.08891 5.76222 3.48446 6.26 2.98668C6.61556 2.63113 7.02445 2.41779 7.48667 2.34668C7.94889 2.27557 8.42889 2.31113 8.92667 2.45335C8.28667 3.44891 8.03778 4.55113 8.18 5.76002C8.32222 6.96891 8.82 8.00002 9.67333 8.85335L9.88667 9.17335C10.1 9.31557 10.3311 9.38668 10.58 9.38668C10.8289 9.38668 11.0244 9.31557 11.1667 9.17335L17.2467 3.09335C17.46 2.88002 17.5667 2.6489 17.5667 2.40002C17.5667 2.15113 17.46 1.92002 17.2467 1.70668L17.0333 1.49335C16.1089 0.568905 14.9889 0.0711269 13.6733 1.52588e-05C12.3578 -0.0710945 11.2022 0.28446 10.2067 1.06668C9.35333 0.568905 8.42889 0.37335 7.43333 0.480017C6.43778 0.586683 5.58444 0.995571 4.87333 1.70668C4.02 2.56002 3.59333 3.59113 3.59333 4.80002V13.44H3.27333C2.49111 13.44 1.83333 13.7067 1.3 14.24C0.766667 14.7734 0.5 15.4311 0.5 16.2134C0.5 16.8534 0.677778 17.4045 1.03333 17.8667C1.38889 18.3289 1.81556 18.6667 2.31333 18.88V20.9067C2.31333 22.6134 2.77556 24.1778 3.7 25.6C4.62444 27.0222 5.79778 28.1245 7.22 28.9067L6.36667 30.6134C6.22444 30.8978 6.20667 31.1467 6.31333 31.36C6.42 31.5734 6.58 31.7511 6.79333 31.8934C7.00667 32.0356 7.23778 32.0534 7.48667 31.9467C7.73556 31.84 7.93111 31.68 8.07333 31.4667L9.03333 29.5467C9.74444 29.6889 10.4911 29.76 11.2733 29.76H21.7267C22.5089 29.76 23.2556 29.6889 23.9667 29.5467L24.9267 31.4667C25.0689 31.68 25.2644 31.84 25.5133 31.9467C25.7622 32.0534 25.9933 32.0356 26.2067 31.8934C26.42 31.7511 26.58 31.5734 26.6867 31.36C26.7933 31.1467 26.7756 30.8978 26.6333 30.6134L25.78 28.9067C27.2022 28.1245 28.3756 27.0222 29.3 25.6C30.2244 24.1778 30.6867 22.6134 30.6867 20.9067V18.88C31.1844 18.6667 31.6111 18.3289 31.9667 17.8667C32.3222 17.4045 32.5 16.8534 32.5 16.2134ZM15.22 2.45335L10.6333 7.14668C10.1356 6.43557 9.92222 5.68891 9.99333 4.90668C10.0644 4.12446 10.3844 3.44891 10.9533 2.88002C11.5222 2.31113 12.2156 1.99113 13.0333 1.92002C13.8511 1.84891 14.58 2.02668 15.22 2.45335ZM3.27333 15.36H29.7267C29.94 15.36 30.1356 15.4489 30.3133 15.6267C30.4911 15.8045 30.58 16.0178 30.58 16.2667C30.58 16.5156 30.4911 16.7289 30.3133 16.9067C30.1356 17.0845 29.94 17.1734 29.7267 17.1734H3.27333C3.06 17.1734 2.86444 17.0845 2.68667 16.9067C2.50889 16.7289 2.42 16.5156 2.42 16.2667C2.42 16.0178 2.50889 15.8045 2.68667 15.6267C2.86444 15.4489 3.06 15.36 3.27333 15.36ZM28.7667 20.9067C28.7667 22.1867 28.4467 23.36 27.8067 24.4267C27.1667 25.4934 26.3133 26.3467 25.2467 26.9867C24.18 27.6267 23.0067 27.9467 21.7267 27.9467H11.2733C9.99333 27.9467 8.82 27.6267 7.75333 26.9867C6.68667 26.3467 5.83333 25.4934 5.19333 24.4267C4.55333 23.36 4.23333 22.1867 4.23333 20.9067V19.0934H28.7667V20.9067ZM14.0467 9.49335C14.0467 9.7778 14.1356 10.0089 14.3133 10.1867C14.4911 10.3645 14.7044 10.4534 14.9533 10.4534C15.2022 10.4534 15.4156 10.3645 15.5933 10.1867C15.7711 10.0089 15.86 9.7778 15.86 9.49335C15.86 9.20891 15.7711 8.97779 15.5933 8.80002C15.4156 8.62224 15.2022 8.53335 14.9533 8.53335C14.7044 8.53335 14.4911 8.62224 14.3133 8.80002C14.1356 8.97779 14.0467 9.20891 14.0467 9.49335ZM16.7133 6.82668C16.7133 7.11113 16.8022 7.34224 16.98 7.52002C17.1578 7.6978 17.3711 7.78668 17.62 7.78668C17.8689 7.78668 18.0822 7.6978 18.26 7.52002C18.4378 7.34224 18.5267 7.11113 18.5267 6.82668C18.5267 6.54224 18.4378 6.31113 18.26 6.13335C18.0822 5.95557 17.8689 5.86668 17.62 5.86668C17.3711 5.86668 17.1578 5.95557 16.98 6.13335C16.8022 6.31113 16.7133 6.54224 16.7133 6.82668ZM17.3533 10.1334C17.3533 10.3467 17.4422 10.56 17.62 10.7734C17.7978 10.9867 18.0111 11.0934 18.26 11.0934C18.5089 11.0934 18.7222 10.9867 18.9 10.7734C19.0778 10.56 19.1667 10.3289 19.1667 10.08C19.1667 9.83113 19.0778 9.6178 18.9 9.44002C18.7222 9.26224 18.5089 9.17335 18.26 9.17335C18.0111 9.17335 17.7978 9.26224 17.62 9.44002C17.4422 9.6178 17.3533 9.84891 17.3533 10.1334Z" fill="#10423E"/>
  </g>
  <defs>
    <clipPath id="clip0_39979_2072">
      <rect width="32" height="32" fill="white" transform="matrix(1 0 0 -1 0.5 32)"/>
    </clipPath>
  </defs>
</svg>