<svg xmlns="http://www.w3.org/2000/svg" width="21" height="21" viewBox="0 0 21 21" fill="none">
  <g clip-path="url(#clip0_39979_2117)">
    <path d="M20.9502 10.6333C20.9502 10.1444 20.7835 9.73333 20.4502 9.4C20.1169 9.06666 19.7058 8.9 19.2169 8.9H4.08353V3.5C4.08353 3.05555 4.23908 2.67777 4.5502 2.36666C4.77242 2.14444 5.02797 2.01111 5.31686 1.96666C5.60575 1.92222 5.90575 1.94444 6.21686 2.03333C5.81686 2.65555 5.66131 3.34444 5.7502 4.1C5.83908 4.85555 6.1502 5.5 6.68353 6.03333L6.81686 6.23333C6.9502 6.32222 7.09464 6.36666 7.2502 6.36666C7.40575 6.36666 7.52797 6.32222 7.61686 6.23333L11.4169 2.43333C11.5502 2.3 11.6169 2.15555 11.6169 2C11.6169 1.84444 11.5502 1.7 11.4169 1.56666L11.2835 1.43333C10.7058 0.855553 10.0058 0.544441 9.18353 0.499996C8.36131 0.455553 7.63908 0.677774 7.01686 1.16666C6.48353 0.855553 5.90575 0.73333 5.28353 0.799997C4.66131 0.866663 4.12797 1.12222 3.68353 1.56666C3.1502 2.1 2.88353 2.74444 2.88353 3.5V8.9H2.68353C2.19464 8.9 1.78353 9.06666 1.4502 9.4C1.11686 9.73333 0.950195 10.1444 0.950195 10.6333C0.950195 11.0333 1.06131 11.3778 1.28353 11.6667C1.50575 11.9556 1.77242 12.1667 2.08353 12.3V13.5667C2.08353 14.6333 2.37242 15.6111 2.9502 16.5C3.52797 17.3889 4.26131 18.0778 5.1502 18.5667L4.61686 19.6333C4.52797 19.8111 4.51686 19.9667 4.58353 20.1C4.6502 20.2333 4.7502 20.3444 4.88353 20.4333C5.01686 20.5222 5.16131 20.5333 5.31686 20.4667C5.47242 20.4 5.59464 20.3 5.68353 20.1667L6.28353 18.9667C6.72797 19.0556 7.19464 19.1 7.68353 19.1H14.2169C14.7058 19.1 15.1724 19.0556 15.6169 18.9667L16.2169 20.1667C16.3058 20.3 16.428 20.4 16.5835 20.4667C16.7391 20.5333 16.8835 20.5222 17.0169 20.4333C17.1502 20.3444 17.2502 20.2333 17.3169 20.1C17.3835 19.9667 17.3724 19.8111 17.2835 19.6333L16.7502 18.5667C17.6391 18.0778 18.3724 17.3889 18.9502 16.5C19.528 15.6111 19.8169 14.6333 19.8169 13.5667V12.3C20.128 12.1667 20.3946 11.9556 20.6169 11.6667C20.8391 11.3778 20.9502 11.0333 20.9502 10.6333ZM10.1502 2.03333L7.28353 4.96666C6.97242 4.52222 6.83908 4.05555 6.88353 3.56666C6.92797 3.07777 7.12797 2.65555 7.48353 2.3C7.83908 1.94444 8.27242 1.74444 8.78353 1.7C9.29464 1.65555 9.7502 1.76666 10.1502 2.03333ZM2.68353 10.1H19.2169C19.3502 10.1 19.4724 10.1556 19.5835 10.2667C19.6946 10.3778 19.7502 10.5111 19.7502 10.6667C19.7502 10.8222 19.6946 10.9556 19.5835 11.0667C19.4724 11.1778 19.3502 11.2333 19.2169 11.2333H2.68353C2.5502 11.2333 2.42797 11.1778 2.31686 11.0667C2.20575 10.9556 2.1502 10.8222 2.1502 10.6667C2.1502 10.5111 2.20575 10.3778 2.31686 10.2667C2.42797 10.1556 2.5502 10.1 2.68353 10.1ZM18.6169 13.5667C18.6169 14.3667 18.4169 15.1 18.0169 15.7667C17.6169 16.4333 17.0835 16.9667 16.4169 17.3667C15.7502 17.7667 15.0169 17.9667 14.2169 17.9667H7.68353C6.88353 17.9667 6.1502 17.7667 5.48353 17.3667C4.81686 16.9667 4.28353 16.4333 3.88353 15.7667C3.48353 15.1 3.28353 14.3667 3.28353 13.5667V12.4333H18.6169V13.5667ZM9.41686 6.43333C9.41686 6.61111 9.47242 6.75555 9.58353 6.86666C9.69464 6.97777 9.82797 7.03333 9.98353 7.03333C10.1391 7.03333 10.2724 6.97777 10.3835 6.86666C10.4946 6.75555 10.5502 6.61111 10.5502 6.43333C10.5502 6.25555 10.4946 6.11111 10.3835 6C10.2724 5.88889 10.1391 5.83333 9.98353 5.83333C9.82797 5.83333 9.69464 5.88889 9.58353 6C9.47242 6.11111 9.41686 6.25555 9.41686 6.43333ZM11.0835 4.76666C11.0835 4.94444 11.1391 5.08889 11.2502 5.2C11.3613 5.31111 11.4946 5.36666 11.6502 5.36666C11.8058 5.36666 11.9391 5.31111 12.0502 5.2C12.1613 5.08889 12.2169 4.94444 12.2169 4.76666C12.2169 4.58889 12.1613 4.44444 12.0502 4.33333C11.9391 4.22222 11.8058 4.16666 11.6502 4.16666C11.4946 4.16666 11.3613 4.22222 11.2502 4.33333C11.1391 4.44444 11.0835 4.58889 11.0835 4.76666ZM11.4835 6.83333C11.4835 6.96666 11.5391 7.1 11.6502 7.23333C11.7613 7.36666 11.8946 7.43333 12.0502 7.43333C12.2058 7.43333 12.3391 7.36666 12.4502 7.23333C12.5613 7.1 12.6169 6.95555 12.6169 6.8C12.6169 6.64444 12.5613 6.51111 12.4502 6.4C12.3391 6.28889 12.2058 6.23333 12.0502 6.23333C11.8946 6.23333 11.7613 6.28889 11.6502 6.4C11.5391 6.51111 11.4835 6.65555 11.4835 6.83333Z" fill="#8A8787"/>
  </g>
  <defs>
    <clipPath id="clip0_39979_2117">
      <rect width="20" height="20" fill="white" transform="matrix(1 0 0 -1 0.950195 20.5)"/>
    </clipPath>
  </defs>
</svg>