<svg xmlns="http://www.w3.org/2000/svg" width="20" height="21" viewBox="0 0 20 21" fill="none">
  <g clip-path="url(#clip0_39979_2113)">
    <path d="M17.5333 6.7667H8.73333C8.28889 6.7667 7.86667 6.90003 7.46667 7.1667C7.37778 6.50003 7.1 5.95559 6.63333 5.53337C6.16667 5.11114 5.62222 4.90003 5 4.90003C4.51111 4.90003 4.06667 5.01114 3.66667 5.23337V4.23337C3.66667 4.05559 3.61111 3.91114 3.5 3.80003C3.38889 3.68892 3.24444 3.63337 3.06667 3.63337H0.6C0.422222 3.63337 0.277778 3.68892 0.166667 3.80003C0.0555556 3.91114 0 4.05559 0 4.23337V16.7667C0 16.9445 0.0555556 17.0889 0.166667 17.2C0.277778 17.3111 0.422222 17.3667 0.6 17.3667H3.06667C3.24444 17.3667 3.38889 17.3111 3.5 17.2C3.61111 17.0889 3.66667 16.9445 3.66667 16.7667V14.8334H16.3333V16.7667C16.3333 16.9445 16.3889 17.0889 16.5 17.2C16.6111 17.3111 16.7556 17.3667 16.9333 17.3667H19.4C19.5778 17.3667 19.7222 17.3111 19.8333 17.2C19.9444 17.0889 20 16.9445 20 16.7667V9.23337C20 8.5667 19.7556 7.98892 19.2667 7.50003C18.7778 7.01114 18.2 6.7667 17.5333 6.7667ZM5 6.03337C5.35556 6.03337 5.65556 6.1667 5.9 6.43336C6.14444 6.70003 6.26667 7.01114 6.26667 7.3667C6.26667 7.72225 6.14444 8.02225 5.9 8.2667C5.65556 8.51114 5.35556 8.63337 5 8.63337C4.64444 8.63337 4.33333 8.51114 4.06667 8.2667C3.8 8.02225 3.66667 7.72225 3.66667 7.3667C3.66667 7.01114 3.8 6.70003 4.06667 6.43336C4.33333 6.1667 4.64444 6.03337 5 6.03337ZM3.66667 9.43337C4.06667 9.70003 4.5 9.83337 4.96667 9.83337C5.43333 9.83337 5.86667 9.70003 6.26667 9.43337V11.1667H3.66667V9.43337ZM18.8 16.1667H17.4667V14.2334C17.4667 14.1 17.4111 13.9778 17.3 13.8667C17.1889 13.7556 17.0667 13.7 16.9333 13.7H3.06667C2.93333 13.7 2.81111 13.7556 2.7 13.8667C2.58889 13.9778 2.53333 14.1 2.53333 14.2334V16.1667H1.2V4.83337H2.53333V11.7667C2.53333 11.9 2.58889 12.0334 2.7 12.1667C2.81111 12.3 2.93333 12.3667 3.06667 12.3667H18.8V16.1667ZM18.8 11.1667H7.46667V9.23337C7.46667 8.87781 7.58889 8.57781 7.83333 8.33337C8.07778 8.08892 8.37778 7.9667 8.73333 7.9667H17.5333C17.8889 7.9667 18.1889 8.08892 18.4333 8.33337C18.6778 8.57781 18.8 8.87781 18.8 9.23337V11.1667Z" fill="#8A8787"/>
  </g>
  <defs>
    <clipPath id="clip0_39979_2113">
      <rect width="20" height="20" fill="white" transform="matrix(1 0 0 -1 0 20.5)"/>
    </clipPath>
  </defs>
</svg>