<svg xmlns="http://www.w3.org/2000/svg" width="32" height="32" viewBox="0 0 32 32" fill="none">
  <g clip-path="url(#clip0_39979_2067)">
    <path d="M28.0533 10.0267H13.9733C13.2622 10.0267 12.5867 10.24 11.9467 10.6667C11.8044 9.60003 11.36 8.72891 10.6133 8.05336C9.86667 7.3778 8.99556 7.04003 8 7.04003C7.21778 7.04003 6.50667 7.2178 5.86667 7.57336V5.97336C5.86667 5.68892 5.77778 5.4578 5.6 5.28003C5.42222 5.10225 5.19111 5.01336 4.90667 5.01336H0.96C0.675556 5.01336 0.444444 5.10225 0.266667 5.28003C0.0888889 5.4578 0 5.68892 0 5.97336V26.0267C0 26.3111 0.0888889 26.5422 0.266667 26.72C0.444444 26.8978 0.675556 26.9867 0.96 26.9867H4.90667C5.19111 26.9867 5.42222 26.8978 5.6 26.72C5.77778 26.5422 5.86667 26.3111 5.86667 26.0267V22.9334H26.1333V26.0267C26.1333 26.3111 26.2222 26.5422 26.4 26.72C26.5778 26.8978 26.8089 26.9867 27.0933 26.9867H31.04C31.3244 26.9867 31.5556 26.8978 31.7333 26.72C31.9111 26.5422 32 26.3111 32 26.0267V13.9734C32 12.9067 31.6089 11.9822 30.8267 11.2C30.0444 10.4178 29.12 10.0267 28.0533 10.0267ZM8 8.85336C8.56889 8.85336 9.04889 9.06669 9.44 9.49336C9.83111 9.92003 10.0267 10.4178 10.0267 10.9867C10.0267 11.5556 9.83111 12.0356 9.44 12.4267C9.04889 12.8178 8.56889 13.0134 8 13.0134C7.43111 13.0134 6.93333 12.8178 6.50667 12.4267C6.08 12.0356 5.86667 11.5556 5.86667 10.9867C5.86667 10.4178 6.08 9.92003 6.50667 9.49336C6.93333 9.06669 7.43111 8.85336 8 8.85336ZM5.86667 14.2934C6.50667 14.72 7.2 14.9334 7.94667 14.9334C8.69333 14.9334 9.38667 14.72 10.0267 14.2934V17.0667H5.86667V14.2934ZM30.08 25.0667H27.9467V21.9734C27.9467 21.76 27.8578 21.5645 27.68 21.3867C27.5022 21.2089 27.3067 21.12 27.0933 21.12H4.90667C4.69333 21.12 4.49778 21.2089 4.32 21.3867C4.14222 21.5645 4.05333 21.76 4.05333 21.9734V25.0667H1.92V6.93336H4.05333V18.0267C4.05333 18.24 4.14222 18.4534 4.32 18.6667C4.49778 18.88 4.69333 18.9867 4.90667 18.9867H30.08V25.0667ZM30.08 17.0667H11.9467V13.9734C11.9467 13.4045 12.1422 12.9245 12.5333 12.5334C12.9244 12.1422 13.4044 11.9467 13.9733 11.9467H28.0533C28.6222 11.9467 29.1022 12.1422 29.4933 12.5334C29.8844 12.9245 30.08 13.4045 30.08 13.9734V17.0667Z" fill="#10423E"/>
  </g>
  <defs>
    <clipPath id="clip0_39979_2067">
      <rect width="32" height="32" fill="white" transform="matrix(1 0 0 -1 0 32)"/>
    </clipPath>
  </defs>
</svg>