<svg xmlns="http://www.w3.org/2000/svg" width="56" height="56" viewBox="0 0 56 56" fill="none">
  <path d="M15.167 14.9165L15.4307 14.9302C16.732 15.0626 17.7498 16.1638 17.75 17.4995V25.4165H38.25V17.4995C38.2502 16.0748 39.4092 14.9165 40.834 14.9165H44.334C45.7348 14.9167 46.875 16.0365 46.9131 17.4282C47.1972 17.316 47.5066 17.2495 47.834 17.2495H49C50.4249 17.2495 51.584 18.4086 51.584 19.8335V36.1665C51.584 37.5914 50.4249 38.7495 49 38.7495H47.834C47.5066 38.7495 47.1973 38.6831 46.9131 38.5708C46.8754 39.9629 45.735 41.0833 44.334 41.0835H40.834C39.4091 41.0835 38.25 39.9244 38.25 38.4995V30.5835H17.75V38.4995C17.75 39.9244 16.5919 41.0835 15.167 41.0835H11.667C10.2658 41.0835 9.12464 39.963 9.08691 38.5708C8.80288 38.683 8.49421 38.7495 8.16699 38.7495H7C5.57524 38.7493 4.41699 37.5913 4.41699 36.1665V19.8335C4.41699 18.4087 5.57524 17.2497 7 17.2495H8.16797L8.33887 17.2563C8.59593 17.275 8.84782 17.3335 9.08691 17.4272C9.12549 16.0358 10.2664 14.9165 11.667 14.9165H15.167ZM11.667 16.5835C11.1622 16.5835 10.7502 16.9939 10.75 17.4995V38.4995C10.75 39.0053 11.1621 39.4165 11.667 39.4165H15.167C15.6719 39.4165 16.084 39.0053 16.084 38.4995V17.4995C16.0838 16.9939 15.6718 16.5835 15.167 16.5835H11.667ZM40.834 16.5835C40.3292 16.5835 39.9172 16.9939 39.917 17.4995V38.4995C39.917 39.0053 40.3291 39.4165 40.834 39.4165H44.334C44.8388 39.4163 45.25 39.0052 45.25 38.4995V17.4995C45.2498 16.994 44.8387 16.5837 44.334 16.5835H40.834ZM7 18.9165C6.49522 18.9167 6.08398 19.3278 6.08398 19.8335V36.1665C6.08398 36.6722 6.49522 37.0833 7 37.0835H8.16699C8.67192 37.0835 9.08398 36.6723 9.08398 36.1665V19.8335C9.08398 19.3277 8.67192 18.9165 8.16699 18.9165H7ZM47.834 18.9165C47.3291 18.9165 46.917 19.3277 46.917 19.8335V36.1665C46.917 36.6723 47.3291 37.0835 47.834 37.0835H49C49.5049 37.0835 49.917 36.6723 49.917 36.1665V19.8335C49.917 19.3277 49.5049 18.9165 49 18.9165H47.834ZM17.75 28.9165H38.25V27.0835H17.75V28.9165Z" fill="#10423E" stroke="#10423E" stroke-width="0.5"/>
</svg>