<svg xmlns="http://www.w3.org/2000/svg" width="32" height="32" viewBox="0 0 32 32" fill="none">
  <g clip-path="url(#clip0_39979_2077)">
    <path d="M25.3867 30.08H21.5467C21.3333 30.08 21.12 30.1867 20.9067 30.4C20.6933 30.6133 20.5867 30.8444 20.5867 31.0933C20.5867 31.3422 20.6933 31.5556 20.9067 31.7333C21.12 31.9111 21.3333 32 21.5467 32H25.3867C25.6711 32 25.9022 31.9111 26.08 31.7333C26.2578 31.5556 26.3467 31.3422 26.3467 31.0933C26.3467 30.8444 26.2578 30.6133 26.08 30.4C25.9022 30.1867 25.6711 30.08 25.3867 30.08ZM17.8133 30.08H14.08C13.7956 30.08 13.5644 30.1867 13.3867 30.4C13.2089 30.6133 13.12 30.8444 13.12 31.0933C13.12 31.3422 13.2089 31.5556 13.3867 31.7333C13.5644 31.9111 13.7956 32 14.08 32H17.8133C18.0978 32 18.3289 31.9111 18.5067 31.7333C18.6844 31.5556 18.7733 31.3422 18.7733 31.0933C18.7733 30.8444 18.6844 30.6133 18.5067 30.4C18.3289 30.1867 18.0978 30.08 17.8133 30.08ZM31.04 13.12C30.8267 13.12 30.6133 13.2089 30.4 13.3867C30.1867 13.5644 30.08 13.7956 30.08 14.08V17.8133C30.08 18.0978 30.1867 18.3289 30.4 18.5067C30.6133 18.6844 30.8444 18.7733 31.0933 18.7733C31.3422 18.7733 31.5556 18.6844 31.7333 18.5067C31.9111 18.3289 32 18.0978 32 17.8133V14.08C32 13.7956 31.9111 13.5644 31.7333 13.3867C31.5556 13.2089 31.3244 13.12 31.04 13.12ZM31.04 20.5867C30.8267 20.5867 30.6133 20.6933 30.4 20.9067C30.1867 21.12 30.08 21.3333 30.08 21.5467V25.28C30.08 25.5644 30.1867 25.7956 30.4 25.9733C30.6133 26.1511 30.8444 26.24 31.0933 26.24C31.3422 26.24 31.5556 26.1511 31.7333 25.9733C31.9111 25.7956 32 25.5644 32 25.28V21.5467C32 21.3333 31.9111 21.12 31.7333 20.9067C31.5556 20.6933 31.3244 20.5867 31.04 20.5867ZM10.3467 30.08H9.38667V29.2267C9.38667 28.9422 9.29778 28.7111 9.12 28.5333C8.94222 28.3556 8.71111 28.2667 8.42667 28.2667C8.14222 28.2667 7.91111 28.3556 7.73333 28.5333C7.55556 28.7111 7.46667 28.9422 7.46667 29.2267V31.04C7.46667 31.3244 7.55556 31.5556 7.73333 31.7333C7.91111 31.9111 8.14222 32 8.42667 32H10.3467C10.56 32 10.7556 31.9111 10.9333 31.7333C11.1111 31.5556 11.2 31.3422 11.2 31.0933C11.2 30.8444 11.1111 30.6133 10.9333 30.4C10.7556 30.1867 10.56 30.08 10.3467 30.08ZM31.04 7.46667H29.2267C28.9422 7.46667 28.7111 7.55555 28.5333 7.73333C28.3556 7.91111 28.2667 8.14222 28.2667 8.42666C28.2667 8.71111 28.3556 8.94222 28.5333 9.12C28.7111 9.29778 28.9422 9.38667 29.2267 9.38667H30.08V10.3467C30.08 10.56 30.1867 10.7556 30.4 10.9333C30.6133 11.1111 30.8444 11.2 31.0933 11.2C31.3422 11.2 31.5556 11.1111 31.7333 10.9333C31.9111 10.7556 32 10.56 32 10.3467V8.42666C32 8.14222 31.9111 7.91111 31.7333 7.73333C31.5556 7.55555 31.3244 7.46667 31.04 7.46667ZM31.04 28.2667C30.8267 28.2667 30.6133 28.3556 30.4 28.5333C30.1867 28.7111 30.08 28.9422 30.08 29.2267V30.08H29.2267C28.9422 30.08 28.7111 30.1867 28.5333 30.4C28.3556 30.6133 28.2667 30.8444 28.2667 31.0933C28.2667 31.3422 28.3556 31.5556 28.5333 31.7333C28.7111 31.9111 28.9422 32 29.2267 32H31.04C31.3244 32 31.5556 31.9111 31.7333 31.7333C31.9111 31.5556 32 31.3244 32 31.04V29.2267C32 28.9422 31.9111 28.7111 31.7333 28.5333C31.5556 28.3556 31.3244 28.2667 31.04 28.2667ZM25.3867 7.46667H24.4267V0.959997C24.4267 0.675552 24.32 0.444441 24.1067 0.266665C23.8933 0.0888863 23.68 -3.8147e-06 23.4667 -3.8147e-06H0.96C0.675556 -3.8147e-06 0.444444 0.0888863 0.266667 0.266665C0.0888889 0.444441 0 0.675552 0 0.959997V23.4667C0 23.68 0.0888889 23.8933 0.266667 24.1067C0.444444 24.32 0.675556 24.4267 0.96 24.4267H7.46667V25.28C7.46667 25.5644 7.55556 25.7956 7.73333 25.9733C7.91111 26.1511 8.14222 26.24 8.42667 26.24C8.71111 26.24 8.94222 26.1511 9.12 25.9733C9.29778 25.7956 9.38667 25.5644 9.38667 25.28V9.38667H25.3867C25.6711 9.38667 25.9022 9.29778 26.08 9.12C26.2578 8.94222 26.3467 8.71111 26.3467 8.42666C26.3467 8.14222 26.2578 7.91111 26.08 7.73333C25.9022 7.55555 25.6711 7.46667 25.3867 7.46667ZM22.5067 7.46667H8.42667C8.14222 7.46667 7.91111 7.55555 7.73333 7.73333C7.55556 7.91111 7.46667 8.14222 7.46667 8.42666V22.5067H1.92V1.92H22.5067V7.46667Z" fill="#10423E"/>
  </g>
  <defs>
    <clipPath id="clip0_39979_2077">
      <rect width="32" height="32" fill="white" transform="matrix(1 0 0 -1 0 32)"/>
    </clipPath>
  </defs>
</svg>