<svg xmlns="http://www.w3.org/2000/svg" width="56" height="56" viewBox="0 0 56 56" fill="none">
  <path d="M42.7773 49H13.2236C11.6555 49 10.3799 47.7244 10.3799 46.1562V9.84375C10.3799 8.27559 11.6555 7 13.2236 7H42.7773C44.3455 7 45.6211 8.27559 45.6211 9.84375V46.1562C45.6211 47.7244 44.3455 49 42.7773 49ZM13.2236 8.3125C12.3793 8.3125 11.6924 8.99937 11.6924 9.84375V46.1562C11.6924 47.0006 12.3793 47.6875 13.2236 47.6875H42.7773C43.6217 47.6875 44.3086 47.0006 44.3086 46.1562V9.84375C44.3086 8.99937 43.6217 8.3125 42.7773 8.3125H13.2236Z" fill="#10423E"/>
  <path d="M26.4178 14.8005H14.0439C13.6816 14.8005 13.3877 14.5066 13.3877 14.1443V10.2822C13.3877 9.91992 13.6816 9.62598 14.0439 9.62598H26.4178C26.7801 9.62598 27.0741 9.91992 27.0741 10.2822V14.1443C27.0741 14.5066 26.7804 14.8005 26.4178 14.8005ZM14.7002 13.488H25.7616V10.9385H14.7002V13.488ZM44.9648 17.4266H11.0361C10.6738 17.4266 10.3799 17.1327 10.3799 16.7704C10.3799 16.408 10.6738 16.1141 11.0361 16.1141H44.9648C45.3271 16.1141 45.6211 16.408 45.6211 16.7704C45.6211 17.1327 45.3274 17.4266 44.9648 17.4266ZM30.8773 14.1202C29.8259 14.1202 28.9704 13.2646 28.9704 12.2132C28.9704 11.1616 29.8259 10.3063 30.8773 10.3063C31.9289 10.3063 32.7843 11.1619 32.7843 12.2132C32.7843 13.2646 31.9289 14.1202 30.8773 14.1202ZM30.8773 11.6188C30.5495 11.6188 30.2829 11.8854 30.2829 12.2132C30.2829 12.5411 30.5495 12.8077 30.8773 12.8077C31.2052 12.8077 31.4718 12.5411 31.4718 12.2132C31.4718 11.8854 31.2052 11.6188 30.8773 11.6188ZM35.6914 14.1202C34.6401 14.1202 33.7845 13.2646 33.7845 12.2132C33.7845 11.1616 34.6401 10.3063 35.6914 10.3063C36.7431 10.3063 37.5984 11.1619 37.5984 12.2132C37.5984 13.2646 36.7428 14.1202 35.6914 14.1202ZM35.6914 11.6188C35.3636 11.6188 35.097 11.8854 35.097 12.2132C35.097 12.5411 35.3636 12.8077 35.6914 12.8077C36.0193 12.8077 36.2859 12.5411 36.2859 12.2132C36.2859 11.8854 36.019 11.6188 35.6914 11.6188ZM40.5053 14.1202C39.4539 14.1202 38.5984 13.2646 38.5984 12.2132C38.5984 11.1616 39.4539 10.3063 40.5053 10.3063C41.557 10.3063 42.4123 11.1619 42.4123 12.2132C42.4123 13.2646 41.5567 14.1202 40.5053 14.1202ZM40.5053 11.6188C40.1775 11.6188 39.9109 11.8854 39.9109 12.2132C39.9109 12.5411 40.1775 12.8077 40.5053 12.8077C40.8332 12.8077 41.0998 12.5411 41.0998 12.2132C41.0998 11.8854 40.8332 11.6188 40.5053 11.6188ZM27.8687 43.1527C26.6125 43.1527 25.3829 42.9348 24.2139 42.5055C23.0846 42.0904 22.0401 41.4888 21.1098 40.7177C19.2406 39.1682 17.9511 37.0105 17.4783 34.6428C17.4075 34.2873 17.638 33.9417 17.9935 33.8709C18.3489 33.7998 18.6946 34.0305 18.7654 34.386C19.6278 38.7055 23.4562 41.8407 27.8684 41.8407C32.9871 41.8407 37.1516 37.6763 37.1516 32.5575C37.1516 27.4388 32.9871 23.2743 27.8684 23.2743C23.4559 23.2743 19.6278 26.4096 18.7654 30.7291C18.6946 31.0845 18.3489 31.315 17.9935 31.2442C17.638 31.1731 17.4075 30.8275 17.4783 30.4723C17.9511 28.1043 19.2406 25.9469 21.1098 24.3973C22.0401 23.626 23.0843 23.0247 24.2139 22.6096C25.3829 22.18 26.6125 21.9624 27.8687 21.9624C29.2987 21.9624 30.6864 22.2427 31.9932 22.7953C33.2551 23.329 34.388 24.093 35.3609 25.0656C36.3338 26.0385 37.0977 27.1716 37.6315 28.4333C38.1841 29.74 38.4644 31.1277 38.4644 32.5578C38.4644 33.9879 38.1841 35.3756 37.6315 36.6823C37.0977 37.9443 36.3338 39.0771 35.3609 40.05C34.388 41.0229 33.2548 41.7869 31.9932 42.3206C30.6864 42.8724 29.2987 43.1527 27.8687 43.1527Z" fill="#10423E"/>
  <path d="M27.8689 40.5596C25.7314 40.5596 23.7217 39.7272 22.2101 38.2157C20.6986 36.7041 19.8662 34.6946 19.8662 32.5569C19.8662 30.4192 20.6986 28.4097 22.2101 26.8981C23.7217 25.3865 25.7312 24.5542 27.8689 24.5542C30.0066 24.5542 32.0161 25.3865 33.5277 26.8981C35.0393 28.4097 35.8716 30.4192 35.8716 32.5569C35.8716 34.6946 35.0393 36.7041 33.5277 38.2157C32.0161 39.727 30.0064 40.5596 27.8689 40.5596ZM27.8689 25.8667C24.18 25.8667 21.1787 28.868 21.1787 32.5569C21.1787 36.2458 24.18 39.2471 27.8689 39.2471C31.5579 39.2471 34.5591 36.2458 34.5591 32.5569C34.5591 28.868 31.5579 25.8667 27.8689 25.8667Z" fill="#10423E"/>
  <path d="M20.7857 35.1701H17.9092C16.7859 35.1701 15.8721 34.2563 15.8721 33.133V31.9805C15.8721 30.8572 16.7859 29.9434 17.9092 29.9434H20.7857C21.148 29.9434 21.442 30.2373 21.442 30.5996C21.442 30.9619 21.148 31.2559 20.7857 31.2559H17.9092C17.5097 31.2559 17.1846 31.581 17.1846 31.9805V33.133C17.1846 33.5325 17.5097 33.8576 17.9092 33.8576H20.7857C21.148 33.8576 21.442 34.1516 21.442 34.5139C21.442 34.8762 21.1483 35.1701 20.7857 35.1701Z" fill="#10423E"/>
</svg>