<svg xmlns="http://www.w3.org/2000/svg" width="23" height="23" viewBox="0 0 23 23" fill="none">
  <path d="M11.4639 22.25C12.0905 22.2499 12.6516 22.0732 13.1396 21.7207L13.3438 21.5596L13.3535 21.5508L18.3965 16.7207L18.4014 16.7158H18.4004C19.2977 15.8085 19.9981 14.7914 20.498 13.666L20.6738 13.2402C21.0578 12.2391 21.25 11.1915 21.25 10.0996C21.25 9.00797 21.0582 7.95246 20.6748 6.93457L20.498 6.5C19.9978 5.35005 19.2973 4.34241 18.3965 3.47949L18.3916 3.47461L18.2227 3.66016L18.3906 3.47461C17.5621 2.72283 16.6474 2.11609 15.6465 1.65625L15.2119 1.46875C14.0363 0.989567 12.7982 0.75 11.5 0.75C10.3639 0.75 9.26526 0.933349 8.20508 1.2998L7.75391 1.46777C6.55597 1.9459 5.50448 2.61646 4.60352 3.47949C3.81531 4.23456 3.17987 5.10019 2.69824 6.0752L2.50195 6.5C2.00123 7.65113 1.75005 8.85187 1.75 10.0996C1.75 11.3473 2.00057 12.5372 2.50195 13.666L2.69922 14.083C3.18033 15.044 3.81436 15.9218 4.59961 16.7158L4.60352 16.7207L9.64648 21.5508L9.83496 21.7148C10.2896 22.0731 10.837 22.25 11.4639 22.25ZM11.5 20.4902C11.2683 20.4902 11.0557 20.418 10.8555 20.2666L5.82715 15.4492C5.16633 14.8162 4.65136 14.1077 4.28125 13.3223L4.13184 12.9805C3.75457 12.0544 3.56548 11.0835 3.56543 10.0654C3.56543 9.04723 3.7545 8.07563 4.13184 7.14941L4.28125 6.80859C4.65096 6.02652 5.16492 5.32958 5.82422 4.71777C6.58066 4.01592 7.44303 3.47222 8.41309 3.08691L8.7793 2.95215C9.63724 2.65759 10.5319 2.50977 11.4639 2.50977C12.5289 2.50981 13.545 2.7022 14.5137 3.08691L14.873 3.23926C15.6974 3.6081 16.4398 4.08828 17.1006 4.68066C18.1412 5.6776 18.8347 6.8283 19.1875 8.13477L19.25 8.38086C19.5209 9.52748 19.521 10.6727 19.25 11.8193L19.1875 12.0645C18.835 13.3701 18.1425 14.4962 17.1045 15.4453L17.0996 15.4492V15.4502L12.0576 20.2793C11.9134 20.4175 11.7337 20.4902 11.5 20.4902ZM11.5 13.5703C12.4889 13.5703 13.3428 13.231 14.0479 12.5557L14.1758 12.4268C14.7964 11.7761 15.1113 10.9967 15.1113 10.0996C15.1112 9.20297 14.7968 8.41508 14.1787 7.74512L14.0508 7.6123C13.3464 6.91277 12.4916 6.55957 11.5 6.55957C10.5085 6.55957 9.64257 6.91247 8.91504 7.60938C8.18758 8.3063 7.81553 9.14022 7.81543 10.0996C7.81543 11.0596 8.18839 11.8838 8.91895 12.5586C9.64702 13.2311 10.5113 13.5703 11.5 13.5703ZM11.5 11.8799C10.9784 11.8799 10.5414 11.7056 10.1748 11.3545C9.80861 11.0037 9.63086 10.5896 9.63086 10.0996C9.63095 9.60982 9.80877 9.19637 10.1748 8.8457C10.5414 8.49457 10.9784 8.32031 11.5 8.32031C12.0216 8.32031 12.4586 8.49457 12.8252 8.8457C13.1912 9.19637 13.369 9.60982 13.3691 10.0996C13.3691 10.5896 13.1914 11.0037 12.8252 11.3545C12.4586 11.7056 12.0216 11.8799 11.5 11.8799Z" fill="#10423E" stroke="#10423E" stroke-width="0.5"/>
</svg>