<svg xmlns="http://www.w3.org/2000/svg" width="20" height="20" viewBox="0 0 20 20" fill="none">
  <g clip-path="url(#clip0_39979_1961)">
    <path d="M16.133 2.53333C15.2886 1.73333 14.3441 1.11111 13.2997 0.666666C12.2552 0.222221 11.1552 -1.90735e-06 9.99967 -1.90735e-06C8.84412 -1.90735e-06 7.73301 0.222221 6.66634 0.666666C5.59967 1.11111 4.66634 1.73333 3.86634 2.53333C3.06634 3.33333 2.44412 4.26667 1.99967 5.33333C1.55523 6.4 1.33301 7.51111 1.33301 8.66667C1.33301 9.82222 1.55523 10.9222 1.99967 11.9667C2.44412 13.0111 3.06634 13.9556 3.86634 14.8L8.46634 19.4C8.86634 19.8 9.36634 20 9.96634 20C10.5663 20 11.0886 19.8 11.533 19.4L16.133 14.8C16.933 13.9556 17.5552 13.0111 17.9997 11.9667C18.4441 10.9222 18.6663 9.82222 18.6663 8.66667C18.6663 7.51111 18.4441 6.4 17.9997 5.33333C17.5552 4.26667 16.933 3.33333 16.133 2.53333ZM15.2663 13.9333L10.6663 18.5333C10.4886 18.7111 10.2663 18.8 9.99967 18.8C9.73301 18.8 9.48856 18.7111 9.26634 18.5333L4.66634 13.9333C3.95523 13.2222 3.4219 12.4111 3.06634 11.5C2.71079 10.5889 2.53301 9.63333 2.53301 8.63333C2.53301 7.63333 2.71079 6.67778 3.06634 5.76667C3.4219 4.85555 3.95523 4.05555 4.66634 3.36666C5.37745 2.67778 6.18856 2.14444 7.09967 1.76667C8.01079 1.38889 8.96634 1.2 9.96634 1.2C10.9663 1.2 11.9219 1.38889 12.833 1.76667C13.7441 2.14444 14.5552 2.66667 15.2663 3.33333C16.2441 4.31111 16.8997 5.44444 17.233 6.73333C17.5663 8.02222 17.5663 9.31111 17.233 10.6C16.8997 11.8889 16.2441 13 15.2663 13.9333ZM9.99967 5.53333C9.15523 5.53333 8.4219 5.84444 7.79967 6.46667C7.17745 7.08889 6.86634 7.82222 6.86634 8.66667C6.86634 9.51111 7.17745 10.2333 7.79967 10.8333C8.4219 11.4333 9.15523 11.7333 9.99967 11.7333C10.8441 11.7333 11.5663 11.4333 12.1663 10.8333C12.7663 10.2333 13.0663 9.51111 13.0663 8.66667C13.0663 7.82222 12.7663 7.08889 12.1663 6.46667C11.5663 5.84444 10.8441 5.53333 9.99967 5.53333ZM9.99967 10.6C9.46634 10.6 9.01079 10.4111 8.63301 10.0333C8.25523 9.65555 8.06634 9.2 8.06634 8.66667C8.06634 8.13333 8.25523 7.67778 8.63301 7.3C9.01079 6.92222 9.46634 6.73333 9.99967 6.73333C10.533 6.73333 10.9886 6.92222 11.3663 7.3C11.7441 7.67778 11.933 8.13333 11.933 8.66667C11.933 9.2 11.7441 9.65555 11.3663 10.0333C10.9886 10.4111 10.533 10.6 9.99967 10.6Z" fill="#8A8787"/>
  </g>
  <defs>
    <clipPath id="clip0_39979_1961">
      <rect width="20" height="20" fill="white" transform="matrix(1 0 0 -1 0 20)"/>
    </clipPath>
  </defs>
</svg>