<svg xmlns="http://www.w3.org/2000/svg" width="40" height="40" viewBox="0 0 40 40" fill="none">
  <path d="M0.539153 13.8291C0.45055 13.7026 0.387953 13.5597 0.354994 13.4088C0.322035 13.2579 0.31937 13.102 0.347154 12.95C0.374937 12.7981 0.432617 12.6532 0.516846 12.5237C0.601075 12.3942 0.710176 12.2828 0.83782 12.1958L16.3148 1.52312C17.4525 0.75663 18.793 0.347168 20.1648 0.347168C21.5366 0.347168 22.8772 0.75663 24.0148 1.52312L39.4918 12.1958C39.7468 12.3715 39.9215 12.6414 39.9775 12.9459C40.0335 13.2505 39.9662 13.5648 39.7905 13.8198C39.6147 14.0747 39.3449 14.2494 39.0403 14.3055C38.7358 14.3615 38.4215 14.2942 38.1665 14.1184L22.6942 3.45278C21.9475 2.94962 21.0676 2.68082 20.1672 2.68082C19.2667 2.68082 18.3868 2.94962 17.6402 3.45278L2.16315 14.1278C2.03695 14.2149 1.8948 14.2763 1.74485 14.3085C1.59489 14.3406 1.44006 14.3429 1.28923 14.3152C1.13839 14.2874 0.994504 14.2302 0.865798 14.1468C0.737092 14.0634 0.626094 13.9555 0.539153 13.8291ZM40.0005 38.8331C40.0005 39.1425 39.8776 39.4393 39.6588 39.6581C39.44 39.8769 39.1432 39.9998 38.8338 39.9998H1.50049C1.19107 39.9998 0.894321 39.8769 0.675529 39.6581C0.456736 39.4393 0.33382 39.1425 0.33382 38.8331C0.33382 38.5237 0.456736 38.227 0.675529 38.0082C0.894321 37.7894 1.19107 37.6664 1.50049 37.6664H6.16715V35.1185C5.48709 34.878 4.89793 34.4333 4.48026 33.8453C4.06258 33.2572 3.83681 32.5544 3.83382 31.8331V28.1324C3.83264 27.6729 3.92256 27.2178 4.09838 26.7932C4.2742 26.3687 4.53244 25.9832 4.85815 25.6591L5.68415 24.8331L4.17449 23.3258C4.06601 23.2173 3.97997 23.0885 3.92127 22.9468C3.86256 22.8051 3.83235 22.6532 3.83235 22.4998C3.83235 22.3464 3.86256 22.1945 3.92127 22.0528C3.97997 21.911 4.06601 21.7823 4.17449 21.6738C4.39356 21.4547 4.69068 21.3316 5.00049 21.3316C5.15389 21.3316 5.30579 21.3619 5.44751 21.4206C5.58924 21.4793 5.71801 21.5653 5.82649 21.6738L7.01415 22.8638L10.3112 16.2675C10.6005 15.6848 11.0471 15.1948 11.6005 14.853C12.1539 14.5111 12.792 14.331 13.4425 14.3331H26.8918C27.5423 14.331 28.1804 14.5111 28.7338 14.853C29.2872 15.1948 29.7339 15.6848 30.0232 16.2675L33.3201 22.8638L34.5078 21.6738C34.7269 21.4547 35.024 21.3316 35.3338 21.3316C35.6436 21.3316 35.9407 21.4547 36.1598 21.6738C36.3789 21.8929 36.502 22.19 36.502 22.4998C36.502 22.8096 36.3789 23.1067 36.1598 23.3258L34.6502 24.8331L35.4762 25.6591C35.8019 25.9832 36.0601 26.3687 36.2359 26.7932C36.4117 27.2178 36.5017 27.6729 36.5005 28.1324V31.8331C36.4975 32.5544 36.2717 33.2572 35.854 33.8453C35.4364 34.4333 34.8472 34.878 34.1672 35.1185V37.6664H38.8338C39.1432 37.6664 39.44 37.7894 39.6588 38.0082C39.8776 38.227 40.0005 38.5237 40.0005 38.8331ZM34.1672 28.1324C34.1671 27.8236 34.0446 27.5274 33.8265 27.3088L32.5175 25.9998H7.81682L6.50782 27.3088C6.28973 27.5274 6.16722 27.8236 6.16715 28.1324V31.8331C6.16715 32.1425 6.29007 32.4393 6.50886 32.6581C6.72765 32.8769 7.0244 32.9998 7.33382 32.9998H33.0005C33.3099 32.9998 33.6067 32.8769 33.8254 32.6581C34.0442 32.4393 34.1672 32.1425 34.1672 31.8331V28.1324ZM9.22149 23.6665H31.1128L27.9348 17.3104C27.8378 17.1169 27.6889 16.9542 27.5047 16.8404C27.3205 16.7267 27.1083 16.6665 26.8918 16.6664H13.4425C13.226 16.6665 13.0138 16.7267 12.8296 16.8404C12.6454 16.9542 12.4965 17.1169 12.3995 17.3104L9.22149 23.6665ZM13.1672 37.6664V35.3331H8.50049V37.6664H13.1672ZM24.8338 37.6664V35.3331H15.5005V37.6664H24.8338ZM31.8338 37.6664V35.3331H27.1672V37.6664H31.8338ZM12.0005 28.3331H9.66715C9.35773 28.3331 9.06099 28.456 8.8422 28.6748C8.6234 28.8936 8.50049 29.1904 8.50049 29.4998C8.50049 29.8092 8.6234 30.1059 8.8422 30.3247C9.06099 30.5435 9.35773 30.6665 9.66715 30.6665H12.0005C12.3099 30.6665 12.6067 30.5435 12.8254 30.3247C13.0442 30.1059 13.1672 29.8092 13.1672 29.4998C13.1672 29.1904 13.0442 28.8936 12.8254 28.6748C12.6067 28.456 12.3099 28.3331 12.0005 28.3331ZM30.6672 28.3331H28.3338C28.0244 28.3331 27.7277 28.456 27.5089 28.6748C27.2901 28.8936 27.1672 29.1904 27.1672 29.4998C27.1672 29.8092 27.2901 30.1059 27.5089 30.3247C27.7277 30.5435 28.0244 30.6665 28.3338 30.6665H30.6672C30.9766 30.6665 31.2733 30.5435 31.4921 30.3247C31.7109 30.1059 31.8338 29.8092 31.8338 29.4998C31.8338 29.1904 31.7109 28.8936 31.4921 28.6748C31.2733 28.456 30.9766 28.3331 30.6672 28.3331Z" fill="#10423E"/>
</svg>