<svg xmlns="http://www.w3.org/2000/svg" width="56" height="56" viewBox="0 0 56 56" fill="none">
  <g clip-path="url(#clip0_39979_2317)">
    <mask id="path-1-inside-1_39979_2317" fill="white">
      <path fill-rule="evenodd" clip-rule="evenodd" d="M22.1674 11.6667C21.2391 11.6667 20.3489 12.0354 19.6925 12.6918C19.0361 13.3482 18.6674 14.2384 18.6674 15.1667V23.3333H35.0007V15.1667C35.0007 13.0007 35.8611 10.9235 37.3926 9.39196C38.9242 7.86041 41.0014 7 43.1674 7C45.3333 7 47.4105 7.86041 48.9421 9.39196C50.4736 10.9235 51.334 13.0007 51.334 15.1667C51.3334 15.7614 51.1056 16.3334 50.6974 16.7659C50.2891 17.1983 49.7311 17.4585 49.1374 17.4934C48.5437 17.5283 47.9591 17.3351 47.5031 16.9534C47.047 16.5717 46.7539 16.0302 46.6837 15.4397L46.6674 15.1667C46.6674 14.2384 46.2986 13.3482 45.6422 12.6918C44.9858 12.0354 44.0956 11.6667 43.1674 11.6667C42.2391 11.6667 41.3489 12.0354 40.6925 12.6918C40.0361 13.3482 39.6674 14.2384 39.6674 15.1667V35C39.6674 35.336 39.5974 35.6533 39.469 35.9403C39.8723 36.1598 40.3314 36.2554 40.7888 36.2151C41.2462 36.1749 41.6816 36.0005 42.0404 35.714L45.209 33.1777C45.4483 32.9862 45.723 32.8437 46.0174 32.7583C46.3118 32.673 46.6201 32.6464 46.9247 32.6802C47.2294 32.714 47.5244 32.8075 47.7929 32.9553C48.0614 33.1031 48.2982 33.3024 48.4897 33.5417C48.6812 33.781 48.8237 34.0557 48.909 34.3501C48.9944 34.6444 49.0209 34.9527 48.9871 35.2574C48.9533 35.562 48.8599 35.857 48.7121 36.1255C48.5642 36.3941 48.365 36.6308 48.1257 36.8223L44.957 39.3563C43.7971 40.2844 42.3721 40.8195 40.888 40.884C39.404 40.9486 37.9378 40.5395 36.7017 39.7157L35.3787 38.8337C34.9666 38.5586 34.4776 38.4219 33.9826 38.4433C33.4876 38.4647 33.0122 38.6431 32.6254 38.9527L32.3734 39.1557C31.1322 40.1485 29.5901 40.6894 28.0007 40.6894C26.4113 40.6894 24.8692 40.1485 23.628 39.1557L23.3737 38.9527C22.9866 38.6434 22.5111 38.4654 22.0161 38.4444C21.5211 38.4235 21.0322 38.5606 20.6204 38.836L19.302 39.7157C18.0657 40.54 16.5991 40.9495 15.1145 40.8849C13.6299 40.8203 12.2044 40.285 11.0444 39.3563L7.87569 36.8223C7.39238 36.4356 7.08251 35.8726 7.01424 35.2574C6.94598 34.6421 7.12492 34.025 7.51169 33.5417C7.89847 33.0584 8.46139 32.7485 9.07664 32.6802C9.69188 32.612 10.309 32.7909 10.7924 33.1777L14.0007 35.7467V15.1667C14.0007 14.0942 14.2119 13.0322 14.6223 12.0414C15.0328 11.0506 15.6343 10.1503 16.3927 9.39196C17.151 8.63362 18.0513 8.03206 19.0421 7.62165C20.0329 7.21124 21.0949 7 22.1674 7C23.2398 7 24.3018 7.21124 25.2926 7.62165C26.2834 8.03206 27.1837 8.63362 27.9421 9.39196C28.7004 10.1503 29.302 11.0506 29.7124 12.0414C30.1228 13.0322 30.334 14.0942 30.334 15.1667C30.3334 15.7614 30.1056 16.3334 29.6974 16.7659C29.2891 17.1983 28.7311 17.4585 28.1374 17.4934C27.5437 17.5283 26.9591 17.3351 26.5031 16.9534C26.047 16.5717 25.7539 16.0302 25.6837 15.4397L25.6674 15.1667C25.6674 14.2384 25.2986 13.3482 24.6422 12.6918C23.9859 12.0354 23.0956 11.6667 22.1674 11.6667ZM35.0007 33.8357V28H18.6674V34.5753C19.872 33.9441 21.2345 33.6774 22.5883 33.8079C23.9421 33.9384 25.2285 34.4605 26.2904 35.3103L26.5424 35.5133C26.9562 35.8447 27.4705 36.0252 28.0007 36.0252C28.5308 36.0252 29.0452 35.8447 29.459 35.5133L29.711 35.3103C30.4475 34.7201 31.2959 34.285 32.2049 34.0312C33.1139 33.7774 34.065 33.7101 35.0007 33.8333V33.8357ZM42.0404 45.0473C41.6533 45.3566 41.1778 45.5346 40.6828 45.5556C40.1877 45.5765 39.6989 45.4394 39.287 45.164L37.9687 44.2843C36.7323 43.46 35.2657 43.0505 33.7812 43.1151C32.2966 43.1797 30.8711 43.715 29.711 44.6437L29.459 44.8467C29.0452 45.178 28.5308 45.3585 28.0007 45.3585C27.4705 45.3585 26.9562 45.178 26.5424 44.8467L26.2904 44.6437C25.1305 43.7156 23.7054 43.1805 22.2214 43.1159C20.7373 43.0513 19.2712 43.4605 18.035 44.2843L16.712 45.1663C16.2999 45.4414 15.8109 45.5781 15.3159 45.5567C14.8209 45.5353 14.3455 45.3569 13.9587 45.0473L10.7924 42.511C10.309 42.1242 9.69188 41.9453 9.07664 42.0135C8.46139 42.0818 7.89847 42.3917 7.51169 42.875C7.12492 43.3583 6.94598 43.9755 7.01424 44.5907C7.08251 45.206 7.39238 45.7689 7.87569 46.1557L11.0444 48.6897C12.2044 49.6183 13.6299 50.1536 15.1145 50.2182C16.5991 50.2828 18.0657 49.8733 19.302 49.049L20.6227 48.167C21.0348 47.8919 21.5238 47.7552 22.0188 47.7766C22.5138 47.798 22.9892 47.9764 23.376 48.286L23.628 48.489C24.8692 49.4819 26.4113 50.0228 28.0007 50.0228C29.5901 50.0228 31.1322 49.4819 32.3734 48.489L32.6277 48.286C33.0148 47.9767 33.4903 47.7987 33.9853 47.7778C34.4803 47.7568 34.9692 47.8939 35.381 48.1693L36.7017 49.049C37.9378 49.8728 39.404 50.282 40.888 50.2174C42.3721 50.1528 43.7971 49.6177 44.957 48.6897L48.1257 46.1557C48.365 45.9642 48.5642 45.7274 48.7121 45.4589C48.8599 45.1904 48.9533 44.8954 48.9871 44.5907C49.0209 44.2861 48.9944 43.9778 48.909 43.6834C48.8237 43.389 48.6812 43.1143 48.4897 42.875C48.2982 42.6357 48.0614 42.4364 47.7929 42.2886C47.5244 42.1408 47.2294 42.0474 46.9247 42.0135C46.6201 41.9798 46.3118 42.0063 46.0174 42.0916C45.723 42.177 45.4483 42.3195 45.209 42.511L42.0404 45.0473Z"/>
    </mask>
    <path fill-rule="evenodd" clip-rule="evenodd" d="M22.1674 11.6667C21.2391 11.6667 20.3489 12.0354 19.6925 12.6918C19.0361 13.3482 18.6674 14.2384 18.6674 15.1667V23.3333H35.0007V15.1667C35.0007 13.0007 35.8611 10.9235 37.3926 9.39196C38.9242 7.86041 41.0014 7 43.1674 7C45.3333 7 47.4105 7.86041 48.9421 9.39196C50.4736 10.9235 51.334 13.0007 51.334 15.1667C51.3334 15.7614 51.1056 16.3334 50.6974 16.7659C50.2891 17.1983 49.7311 17.4585 49.1374 17.4934C48.5437 17.5283 47.9591 17.3351 47.5031 16.9534C47.047 16.5717 46.7539 16.0302 46.6837 15.4397L46.6674 15.1667C46.6674 14.2384 46.2986 13.3482 45.6422 12.6918C44.9858 12.0354 44.0956 11.6667 43.1674 11.6667C42.2391 11.6667 41.3489 12.0354 40.6925 12.6918C40.0361 13.3482 39.6674 14.2384 39.6674 15.1667V35C39.6674 35.336 39.5974 35.6533 39.469 35.9403C39.8723 36.1598 40.3314 36.2554 40.7888 36.2151C41.2462 36.1749 41.6816 36.0005 42.0404 35.714L45.209 33.1777C45.4483 32.9862 45.723 32.8437 46.0174 32.7583C46.3118 32.673 46.6201 32.6464 46.9247 32.6802C47.2294 32.714 47.5244 32.8075 47.7929 32.9553C48.0614 33.1031 48.2982 33.3024 48.4897 33.5417C48.6812 33.781 48.8237 34.0557 48.909 34.3501C48.9944 34.6444 49.0209 34.9527 48.9871 35.2574C48.9533 35.562 48.8599 35.857 48.7121 36.1255C48.5642 36.3941 48.365 36.6308 48.1257 36.8223L44.957 39.3563C43.7971 40.2844 42.3721 40.8195 40.888 40.884C39.404 40.9486 37.9378 40.5395 36.7017 39.7157L35.3787 38.8337C34.9666 38.5586 34.4776 38.4219 33.9826 38.4433C33.4876 38.4647 33.0122 38.6431 32.6254 38.9527L32.3734 39.1557C31.1322 40.1485 29.5901 40.6894 28.0007 40.6894C26.4113 40.6894 24.8692 40.1485 23.628 39.1557L23.3737 38.9527C22.9866 38.6434 22.5111 38.4654 22.0161 38.4444C21.5211 38.4235 21.0322 38.5606 20.6204 38.836L19.302 39.7157C18.0657 40.54 16.5991 40.9495 15.1145 40.8849C13.6299 40.8203 12.2044 40.285 11.0444 39.3563L7.87569 36.8223C7.39238 36.4356 7.08251 35.8726 7.01424 35.2574C6.94598 34.6421 7.12492 34.025 7.51169 33.5417C7.89847 33.0584 8.46139 32.7485 9.07664 32.6802C9.69188 32.612 10.309 32.7909 10.7924 33.1777L14.0007 35.7467V15.1667C14.0007 14.0942 14.2119 13.0322 14.6223 12.0414C15.0328 11.0506 15.6343 10.1503 16.3927 9.39196C17.151 8.63362 18.0513 8.03206 19.0421 7.62165C20.0329 7.21124 21.0949 7 22.1674 7C23.2398 7 24.3018 7.21124 25.2926 7.62165C26.2834 8.03206 27.1837 8.63362 27.9421 9.39196C28.7004 10.1503 29.302 11.0506 29.7124 12.0414C30.1228 13.0322 30.334 14.0942 30.334 15.1667C30.3334 15.7614 30.1056 16.3334 29.6974 16.7659C29.2891 17.1983 28.7311 17.4585 28.1374 17.4934C27.5437 17.5283 26.9591 17.3351 26.5031 16.9534C26.047 16.5717 25.7539 16.0302 25.6837 15.4397L25.6674 15.1667C25.6674 14.2384 25.2986 13.3482 24.6422 12.6918C23.9859 12.0354 23.0956 11.6667 22.1674 11.6667ZM35.0007 33.8357V28H18.6674V34.5753C19.872 33.9441 21.2345 33.6774 22.5883 33.8079C23.9421 33.9384 25.2285 34.4605 26.2904 35.3103L26.5424 35.5133C26.9562 35.8447 27.4705 36.0252 28.0007 36.0252C28.5308 36.0252 29.0452 35.8447 29.459 35.5133L29.711 35.3103C30.4475 34.7201 31.2959 34.285 32.2049 34.0312C33.1139 33.7774 34.065 33.7101 35.0007 33.8333V33.8357ZM42.0404 45.0473C41.6533 45.3566 41.1778 45.5346 40.6828 45.5556C40.1877 45.5765 39.6989 45.4394 39.287 45.164L37.9687 44.2843C36.7323 43.46 35.2657 43.0505 33.7812 43.1151C32.2966 43.1797 30.8711 43.715 29.711 44.6437L29.459 44.8467C29.0452 45.178 28.5308 45.3585 28.0007 45.3585C27.4705 45.3585 26.9562 45.178 26.5424 44.8467L26.2904 44.6437C25.1305 43.7156 23.7054 43.1805 22.2214 43.1159C20.7373 43.0513 19.2712 43.4605 18.035 44.2843L16.712 45.1663C16.2999 45.4414 15.8109 45.5781 15.3159 45.5567C14.8209 45.5353 14.3455 45.3569 13.9587 45.0473L10.7924 42.511C10.309 42.1242 9.69188 41.9453 9.07664 42.0135C8.46139 42.0818 7.89847 42.3917 7.51169 42.875C7.12492 43.3583 6.94598 43.9755 7.01424 44.5907C7.08251 45.206 7.39238 45.7689 7.87569 46.1557L11.0444 48.6897C12.2044 49.6183 13.6299 50.1536 15.1145 50.2182C16.5991 50.2828 18.0657 49.8733 19.302 49.049L20.6227 48.167C21.0348 47.8919 21.5238 47.7552 22.0188 47.7766C22.5138 47.798 22.9892 47.9764 23.376 48.286L23.628 48.489C24.8692 49.4819 26.4113 50.0228 28.0007 50.0228C29.5901 50.0228 31.1322 49.4819 32.3734 48.489L32.6277 48.286C33.0148 47.9767 33.4903 47.7987 33.9853 47.7778C34.4803 47.7568 34.9692 47.8939 35.381 48.1693L36.7017 49.049C37.9378 49.8728 39.404 50.282 40.888 50.2174C42.3721 50.1528 43.7971 49.6177 44.957 48.6897L48.1257 46.1557C48.365 45.9642 48.5642 45.7274 48.7121 45.4589C48.8599 45.1904 48.9533 44.8954 48.9871 44.5907C49.0209 44.2861 48.9944 43.9778 48.909 43.6834C48.8237 43.389 48.6812 43.1143 48.4897 42.875C48.2982 42.6357 48.0614 42.4364 47.7929 42.2886C47.5244 42.1408 47.2294 42.0474 46.9247 42.0135C46.6201 41.9798 46.3118 42.0063 46.0174 42.0916C45.723 42.177 45.4483 42.3195 45.209 42.511L42.0404 45.0473Z" fill="#10423E" stroke="#F5F5F5" stroke-width="0.8" mask="url(#path-1-inside-1_39979_2317)"/>
  </g>
  <defs>
    <clipPath id="clip0_39979_2317">
      <rect width="56" height="56" fill="white"/>
    </clipPath>
  </defs>
</svg>