<svg xmlns="http://www.w3.org/2000/svg" width="80" height="80" viewBox="0 0 80 80" fill="none">
<g opacity="0.3">
<path d="M17.2068 69.0909C11.8086 69.0909 7.59124 67.1862 4.55474 63.3765C1.51825 59.394 0 53.5065 0 45.7144C0 37.5758 1.77129 29.7836 5.31387 22.3376C9.02514 14.8918 14.2547 7.53247 21.0025 0.259753C21.1712 0.0865842 21.4242 0 21.7616 0C22.2676 0 22.605 0.259742 22.7737 0.779225C23.1111 1.12554 23.1954 1.55844 23.0268 2.07793C18.9781 7.61905 16.1946 12.987 14.6764 18.1818C13.3268 23.2035 12.6521 28.8311 12.6521 35.0649C12.6521 39.7402 13.2425 43.3765 14.4234 45.974C15.6042 48.5714 17.2068 50.9091 19.2311 52.9871L9.61557 54.8053C9.44688 51.8614 10.206 49.6104 11.8929 48.052C13.7486 46.4934 16.1103 45.7144 18.9781 45.7144C22.5207 45.7144 25.2197 46.7533 27.0754 48.8311C29.0997 50.9091 30.112 53.7662 30.112 57.4025C30.112 61.2122 28.931 64.1558 26.5694 66.2338C24.3764 68.1385 21.2555 69.0909 17.2068 69.0909ZM56.1751 69.0909C50.7769 69.0909 46.5596 67.1862 43.5232 63.3765C40.6553 59.394 39.2213 53.5065 39.2213 45.7144C39.2213 37.4025 40.9927 29.5238 44.5353 22.078C48.0779 14.632 53.3074 7.35931 60.2238 0.259753C60.3925 0.0865842 60.6455 0 60.9829 0C61.4891 0 61.8265 0.259742 61.9952 0.779225C62.3324 1.12554 62.4169 1.55844 62.2482 2.07793C58.1995 7.61905 55.416 12.987 53.8978 18.1818C52.5483 23.2035 51.8734 28.8311 51.8734 35.0649C51.8734 39.7402 52.3796 43.4633 53.3916 46.2338C54.5726 48.8311 56.1751 51.0822 58.1995 52.9871L48.837 54.8053C48.6683 51.8614 49.4274 49.6104 51.1143 48.052C52.8012 46.4934 55.163 45.7144 58.1995 45.7144C61.742 45.7144 64.4412 46.7533 66.2969 48.8311C68.3212 50.9091 69.3333 53.7662 69.3333 57.4025C69.3333 61.2122 68.1525 64.1558 65.7908 66.2338C63.5977 68.1385 60.3925 69.0909 56.1751 69.0909Z" fill="white"/>
</g>
</svg>