<svg xmlns="http://www.w3.org/2000/svg" width="19" height="19" viewBox="0 0 19 19" fill="none">
  <path d="M12.9687 9.6875V13.0625C12.9687 15.875 11.8438 17 9.03125 17H5.65625C2.84375 17 1.71875 15.875 1.71875 13.0625V9.6875C1.71875 6.875 2.84375 5.75 5.65625 5.75H9.03125C11.8438 5.75 12.9687 6.875 12.9687 9.6875Z" stroke="#8A8787" stroke-linecap="round" stroke-linejoin="round"/>
  <path d="M16.7187 4.8875V7.3625C16.7187 9.425 15.8938 10.25 13.8313 10.25H12.9687V9.6875C12.9687 6.875 11.8438 5.75 9.03125 5.75H8.46875V4.8875C8.46875 2.825 9.29375 2 11.3562 2H13.8313C15.8938 2 16.7187 2.825 16.7187 4.8875Z" stroke="#8A8787" stroke-linecap="round" stroke-linejoin="round"/>
</svg>