<svg xmlns="http://www.w3.org/2000/svg" width="26" height="25" viewBox="0 0 26 25" fill="none">
  <path d="M12.998 0.936523C13.9509 0.939745 15.0197 1.59786 15.9199 3.16211L16.0977 3.4873L17.1084 5.44922L17.1104 5.45215C17.4091 6.0217 17.9133 6.54209 18.4775 6.94434C19.0432 7.34753 19.707 7.65904 20.3535 7.77832L20.3613 7.78027L20.3701 7.78125L21.7432 7.98828V7.9873C23.7212 8.30247 24.7636 9.12563 25.0654 10.0283C25.3648 10.9241 25.0227 12.1688 23.6045 13.5381L22.3398 14.7441L22.332 14.751C21.8431 15.2373 21.4816 15.9205 21.2744 16.6162C21.0935 17.2239 21.0177 17.8836 21.1025 18.4795L21.1494 18.7314L21.1514 18.7402L21.332 19.4639C21.8782 21.7872 21.4448 23.14 20.6504 23.6943C19.8914 24.2238 18.526 24.2268 16.6035 23.2217L16.2109 23.0078L16.2041 23.0029L15.2646 22.4863H15.2637C14.612 22.1262 13.7927 21.96 13 21.96C12.2071 21.96 11.3871 22.1261 10.7354 22.4863L9.7959 23.0029L10.0361 23.4414L9.79492 23.0029L9.78711 23.0078C7.63889 24.2431 6.13168 24.2752 5.32324 23.708C4.52893 23.1507 4.1017 21.7887 4.66797 19.4609L4.66699 19.46L4.84766 18.7402L4.84961 18.7314C5.00054 18.0738 4.93144 17.3109 4.72461 16.6162C4.54334 16.0075 4.2442 15.4084 3.84473 14.9424L3.66699 14.751L3.66504 14.749L2.40039 13.5088L2.39746 13.5059L2.14355 13.251C0.936656 11.9818 0.652846 10.8344 0.933594 9.99414C1.23549 9.09071 2.27977 8.26782 4.26074 7.95312L4.25977 7.95215L5.62988 7.74707L5.63379 7.74609C6.27263 7.64459 6.94084 7.32886 7.50879 6.92285C8.00549 6.56773 8.46112 6.1186 8.76758 5.62988L8.88867 5.41797L8.89062 5.41504L9.90039 3.45312L9.90137 3.4541C10.8356 1.67354 11.9822 0.933114 12.998 0.936523Z" stroke="#C8C8C8"/>
</svg>