<svg xmlns="http://www.w3.org/2000/svg" width="24" height="24" viewBox="0 0 24 24" fill="none">
  <path d="M14.1561 4.10402L14.915 5.56879C15.2945 6.28833 16.2431 6.95647 17.0833 7.11066L18.1132 7.26485C21.203 7.7531 21.9348 9.91172 19.7123 12.0446L18.7637 12.9441C18.1403 13.5608 17.788 14.7429 17.9777 15.5652L18.1132 16.1049C18.9534 19.6512 16.9749 21.0132 13.7225 19.1629L13.0178 18.7775C12.1776 18.3149 10.8224 18.3149 9.98221 18.7775L9.27752 19.1629C5.998 21.0389 4.01945 19.6512 4.88676 16.1049L5.02228 15.5652C5.212 14.7429 4.85966 13.5608 4.23628 12.9441L3.28766 12.0189C1.06518 9.88602 1.79697 7.72741 4.88676 7.23915L5.91669 7.08496C6.7298 6.95647 7.70552 6.26263 8.08497 5.54309L8.84386 4.07832C10.3074 1.30296 12.6925 1.30296 14.1561 4.10402Z" fill="#8A8787" fill-opacity="0.3"/>
</svg>